<svg width="149" height="23" viewBox="0 0 149 23" fill="none" xmlns="http://www.w3.org/2000/svg">
<path d="M37.9839 18.725H33.2998V5.30812H38.0226C39.3517 5.30812 40.4958 5.57672 41.455 6.11392C42.4142 6.64675 43.1519 7.41324 43.668 8.4134C44.1885 9.41355 44.4487 10.6102 44.4487 12.0035C44.4487 13.4011 44.1885 14.6021 43.668 15.6066C43.1519 16.6112 42.4099 17.382 41.4421 17.9192C40.4786 18.4564 39.3259 18.725 37.9839 18.725ZM36.0935 16.2945H37.8677C38.6936 16.2945 39.3882 16.146 39.9517 15.849C40.5195 15.5477 40.9453 15.0825 41.2292 14.4536C41.5174 13.8203 41.6615 13.0036 41.6615 12.0035C41.6615 11.012 41.5174 10.2019 41.2292 9.57296C40.9453 8.94405 40.5216 8.48109 39.9582 8.1841C39.3947 7.88712 38.7 7.73862 37.8742 7.73862H36.0935V16.2945Z" fill="#23417D"/>
<path d="M50.9828 18.9216C49.9634 18.9216 49.086 18.7119 48.3505 18.2926C47.6193 17.869 47.0558 17.2706 46.6601 16.4976C46.2644 15.7202 46.0665 14.8008 46.0665 13.7395C46.0665 12.7044 46.2644 11.796 46.6601 11.0142C47.0558 10.2325 47.6128 9.62319 48.3311 9.18644C49.0537 8.74969 49.9011 8.53132 50.8732 8.53132C51.527 8.53132 52.1356 8.63832 52.699 8.85233C53.2668 9.06197 53.7615 9.37861 54.183 9.80226C54.6088 10.2259 54.94 10.7587 55.1766 11.4008C55.4131 12.0384 55.5314 12.7852 55.5314 13.6413V14.4078H47.1633V12.6782H52.9442C52.9442 12.2764 52.8582 11.9205 52.6861 11.6104C52.5141 11.3003 52.2754 11.0579 51.97 10.8832C51.6689 10.7041 51.3183 10.6146 50.9183 10.6146C50.5011 10.6146 50.1312 10.7129 49.8086 10.9094C49.4903 11.1016 49.2408 11.3614 49.0602 11.689C48.8795 12.0122 48.7871 12.3725 48.7827 12.77V14.4143C48.7827 14.9122 48.8731 15.3424 49.0537 15.7049C49.2387 16.0674 49.4989 16.3469 49.8344 16.5435C50.1699 16.74 50.5678 16.8383 51.028 16.8383C51.3334 16.8383 51.613 16.7946 51.8668 16.7072C52.1205 16.6199 52.3377 16.4889 52.5184 16.3142C52.6991 16.1395 52.8367 15.9255 52.9313 15.6721L55.4734 15.8425C55.3443 16.4627 55.0798 17.0042 54.6798 17.4672C54.2841 17.9258 53.7722 18.2839 53.1442 18.5416C52.5205 18.7949 51.8001 18.9216 50.9828 18.9216Z" fill="#23417D"/>
<path d="M61.7898 22.7082C60.8994 22.7082 60.1359 22.5837 59.4994 22.3347C58.8671 22.0902 58.3638 21.756 57.9896 21.3324C57.6154 20.9088 57.3724 20.4327 57.2605 19.9042L59.8026 19.557C59.88 19.7579 60.0026 19.9457 60.1703 20.1204C60.3381 20.2951 60.5596 20.4349 60.8349 20.5397C61.1145 20.6489 61.4543 20.7035 61.8543 20.7035C62.4522 20.7035 62.9447 20.555 63.3318 20.258C63.7232 19.9654 63.9189 19.474 63.9189 18.784V16.9431H63.8028C63.6823 17.2226 63.5017 17.4868 63.2608 17.7358C63.0199 17.9847 62.7102 18.1878 62.3317 18.345C61.9532 18.5023 61.5016 18.5809 60.9768 18.5809C60.2327 18.5809 59.5553 18.4062 58.9445 18.0568C58.338 17.703 57.8541 17.1636 57.4928 16.4386C57.1358 15.7093 56.9573 14.7877 56.9573 13.674C56.9573 12.5341 57.1401 11.582 57.5057 10.8177C57.8713 10.0534 58.3574 9.48125 58.9638 9.10127C59.5746 8.7213 60.2435 8.53132 60.9704 8.53132C61.5252 8.53132 61.9898 8.6274 62.364 8.81957C62.7382 9.00737 63.0393 9.24322 63.2673 9.5271C63.4995 9.80662 63.678 10.0818 63.8028 10.3526H63.906V8.66234H66.6352V18.8233C66.6352 19.6793 66.4287 20.3956 66.0158 20.9721C65.6028 21.5486 65.0308 21.981 64.2996 22.2692C63.5726 22.5618 62.7361 22.7082 61.7898 22.7082ZM61.8478 16.4845C62.2909 16.4845 62.6651 16.3731 62.9705 16.1504C63.2802 15.9233 63.5167 15.6001 63.6802 15.1808C63.8479 14.7572 63.9318 14.2505 63.9318 13.6609C63.9318 13.0713 63.8501 12.5603 63.6866 12.1279C63.5232 11.6912 63.2866 11.3527 62.9769 11.1125C62.6672 10.8723 62.2909 10.7522 61.8478 10.7522C61.3962 10.7522 61.0155 10.8767 60.7059 11.1256C60.3962 11.3702 60.1617 11.7108 60.0026 12.1476C59.8435 12.5843 59.7639 13.0888 59.7639 13.6609C59.7639 14.2418 59.8435 14.7441 60.0026 15.1677C60.166 15.587 60.4005 15.9124 60.7059 16.1438C61.0155 16.3709 61.3962 16.4845 61.8478 16.4845Z" fill="#23417D"/>
<path d="M68.8223 18.725V8.66234H71.487V10.4181H71.5902C71.7709 9.79352 72.0741 9.32183 72.4999 9.00301C72.9258 8.67981 73.4161 8.51822 73.971 8.51822C74.1086 8.51822 74.257 8.52695 74.4161 8.54442C74.5753 8.56189 74.7151 8.58591 74.8355 8.61648V11.0928C74.7065 11.0535 74.528 11.0186 74.3 10.988C74.072 10.9575 73.8634 10.9422 73.6742 10.9422C73.2699 10.9422 72.9085 11.0317 72.5903 11.2108C72.2763 11.3855 72.0268 11.63 71.8418 11.9445C71.6612 12.259 71.5709 12.6215 71.5709 13.032V18.725H68.8223Z" fill="#23417D"/>
<path d="M80.3116 18.9216C79.2922 18.9216 78.4147 18.7119 77.6792 18.2926C76.948 17.869 76.3845 17.2706 75.9888 16.4976C75.5931 15.7202 75.3952 14.8008 75.3952 13.7395C75.3952 12.7044 75.5931 11.796 75.9888 11.0142C76.3845 10.2325 76.9415 9.62319 77.6598 9.18644C78.3824 8.74969 79.2298 8.53132 80.2019 8.53132C80.8557 8.53132 81.4643 8.63832 82.0278 8.85233C82.5955 9.06197 83.0902 9.37861 83.5117 9.80226C83.9375 10.2259 84.2687 10.7587 84.5053 11.4008C84.7419 12.0384 84.8601 12.7852 84.8601 13.6413V14.4078H76.492V12.6782H82.2729C82.2729 12.2764 82.1869 11.9205 82.0149 11.6104C81.8428 11.3003 81.6041 11.0579 81.2987 10.8832C80.9976 10.7041 80.6471 10.6146 80.247 10.6146C79.8298 10.6146 79.4599 10.7129 79.1373 10.9094C78.819 11.1016 78.5695 11.3614 78.3889 11.689C78.2082 12.0122 78.1158 12.3725 78.1115 12.77V14.4143C78.1115 14.9122 78.2018 15.3424 78.3824 15.7049C78.5674 16.0674 78.8276 16.3469 79.1631 16.5435C79.4986 16.74 79.8965 16.8383 80.3567 16.8383C80.6621 16.8383 80.9417 16.7946 81.1955 16.7072C81.4492 16.6199 81.6665 16.4889 81.8471 16.3142C82.0278 16.1395 82.1654 15.9255 82.26 15.6721L84.8021 15.8425C84.673 16.4627 84.4085 17.0042 84.0085 17.4672C83.6128 17.9258 83.1009 18.2839 82.4729 18.5416C81.8493 18.7949 81.1288 18.9216 80.3116 18.9216Z" fill="#23417D"/>
<path d="M91.1701 18.9216C90.1507 18.9216 89.2733 18.7119 88.5377 18.2926C87.8065 17.869 87.2431 17.2706 86.8473 16.4976C86.4516 15.7202 86.2538 14.8008 86.2538 13.7395C86.2538 12.7044 86.4516 11.796 86.8473 11.0142C87.2431 10.2325 87.8001 9.62319 88.5184 9.18644C89.241 8.74969 90.0883 8.53132 91.0604 8.53132C91.7142 8.53132 92.3228 8.63832 92.8863 8.85233C93.4541 9.06197 93.9487 9.37861 94.3703 9.80226C94.7961 10.2259 95.1273 10.7587 95.3638 11.4008C95.6004 12.0384 95.7187 12.7852 95.7187 13.6413V14.4078H87.3506V12.6782H93.1315C93.1315 12.2764 93.0455 11.9205 92.8734 11.6104C92.7014 11.3003 92.4626 11.0579 92.1572 10.8832C91.8562 10.7041 91.5056 10.6146 91.1056 10.6146C90.6884 10.6146 90.3185 10.7129 89.9959 10.9094C89.6776 11.1016 89.4281 11.3614 89.2474 11.689C89.0668 12.0122 88.9743 12.3725 88.97 12.77V14.4143C88.97 14.9122 89.0603 15.3424 89.241 15.7049C89.4259 16.0674 89.6862 16.3469 90.0217 16.5435C90.3572 16.74 90.755 16.8383 91.2153 16.8383C91.5207 16.8383 91.8002 16.7946 92.054 16.7072C92.3078 16.6199 92.525 16.4889 92.7057 16.3142C92.8863 16.1395 93.024 15.9255 93.1186 15.6721L95.6606 15.8425C95.5316 16.4627 95.2671 17.0042 94.867 17.4672C94.4713 17.9258 93.9595 18.2839 93.3315 18.5416C92.7078 18.7949 91.9873 18.9216 91.1701 18.9216Z" fill="#23417D"/>
<path d="M104.046 18.725H101.053L105.614 5.30812H109.214L113.769 18.725H110.776L107.466 8.37409H107.363L104.046 18.725ZM103.859 13.4513H110.931V15.6656H103.859V13.4513Z" fill="#23417D"/>
<path d="M121.663 14.4405V8.66234H124.412V18.725H121.773V16.8972H121.67C121.446 17.4868 121.074 17.9607 120.554 18.3188C120.038 18.677 119.407 18.856 118.663 18.856C118.001 18.856 117.418 18.7032 116.915 18.3975C116.412 18.0917 116.018 17.6572 115.734 17.0938C115.455 16.5304 115.313 15.8556 115.308 15.0694V8.66234H118.057V14.5715C118.061 15.1655 118.218 15.635 118.528 15.9801C118.837 16.3251 119.253 16.4976 119.773 16.4976C120.104 16.4976 120.414 16.4212 120.702 16.2683C120.99 16.1111 121.223 15.8796 121.399 15.5739C121.58 15.2682 121.668 14.8904 121.663 14.4405Z" fill="#23417D"/>
<path d="M130.262 18.8888C129.509 18.8888 128.828 18.6923 128.217 18.2992C127.61 17.9017 127.129 17.3187 126.772 16.55C126.419 15.777 126.243 14.8292 126.243 13.7068C126.243 12.5538 126.425 11.5951 126.791 10.8308C127.157 10.0621 127.643 9.4878 128.249 9.10783C128.86 8.72349 129.529 8.53132 130.256 8.53132C130.811 8.53132 131.273 8.6274 131.643 8.81957C132.017 9.00737 132.318 9.24322 132.546 9.5271C132.778 9.80662 132.955 10.0818 133.075 10.3526H133.159V5.30812H135.901V18.725H133.191V17.1134H133.075C132.946 17.3929 132.763 17.6703 132.527 17.9454C132.295 18.2162 131.991 18.4411 131.617 18.6202C131.247 18.7993 130.796 18.8888 130.262 18.8888ZM131.133 16.6679C131.576 16.6679 131.95 16.5456 132.256 16.3011C132.565 16.0521 132.802 15.7049 132.965 15.2594C133.133 14.8139 133.217 14.292 133.217 13.6937C133.217 13.0953 133.135 12.5756 132.972 12.1345C132.809 11.6934 132.572 11.3527 132.262 11.1125C131.953 10.8723 131.576 10.7522 131.133 10.7522C130.682 10.7522 130.301 10.8767 129.991 11.1256C129.681 11.3745 129.447 11.7196 129.288 12.1607C129.129 12.6018 129.049 13.1128 129.049 13.6937C129.049 14.2789 129.129 14.7965 129.288 15.2463C129.451 15.6918 129.686 16.0412 129.991 16.2945C130.301 16.5435 130.682 16.6679 131.133 16.6679Z" fill="#23417D"/>
<path d="M138.161 18.725V8.66234H140.909V18.725H138.161ZM139.542 7.3652C139.133 7.3652 138.782 7.22763 138.49 6.95247C138.202 6.67296 138.058 6.33884 138.058 5.95014C138.058 5.5658 138.202 5.23606 138.49 4.9609C138.782 4.68139 139.133 4.54163 139.542 4.54163C139.95 4.54163 140.299 4.68139 140.587 4.9609C140.879 5.23606 141.026 5.5658 141.026 5.95014C141.026 6.33884 140.879 6.67296 140.587 6.95247C140.299 7.22763 139.95 7.3652 139.542 7.3652Z" fill="#23417D"/>
<path d="M148.382 8.66234V10.7587H142.414V8.66234H148.382ZM143.769 6.25149H146.518V15.6328C146.518 15.8905 146.556 16.0914 146.634 16.2356C146.711 16.3753 146.819 16.4736 146.956 16.5304C147.098 16.5871 147.262 16.6155 147.447 16.6155C147.576 16.6155 147.705 16.6046 147.834 16.5828C147.963 16.5566 148.062 16.5369 148.131 16.5238L148.563 18.6005C148.425 18.6442 148.232 18.6944 147.982 18.7512C147.733 18.8124 147.43 18.8495 147.073 18.8626C146.41 18.8888 145.83 18.7993 145.331 18.594C144.836 18.3887 144.451 18.0699 144.176 17.6375C143.9 17.2051 143.765 16.6592 143.769 15.9997V6.25149Z" fill="#23417D"/>
<path d="M11.3447 0C14.1283 0 16.4015 2.19226 16.5488 4.95215C17.0351 4.80143 17.5524 4.7207 18.0879 4.7207C20.9664 4.72092 23.2997 7.06579 23.2998 9.95801C23.2998 12.2475 21.8371 14.1923 19.7998 14.9043C20.3339 15.7263 20.6455 16.7078 20.6455 17.7627C20.6455 20.6551 18.3113 23 15.4326 23C13.8331 22.9999 12.4024 22.2754 11.4463 21.1357C10.4901 22.275 9.06027 23 7.46094 23C4.58226 22.9999 2.24905 20.6551 2.24902 17.7627C2.24902 16.6545 2.59122 15.6266 3.17578 14.7803C1.30919 13.9833 0 12.1243 0 9.95801C9.41243e-05 7.06565 2.33421 4.7207 5.21289 4.7207C5.53302 4.72072 5.84621 4.7511 6.15039 4.80664C6.36833 2.11563 8.6103 3.68938e-05 11.3447 0Z" fill="#23417D"/>
</svg>
